<svg width="348" height="304" viewBox="0 0 348 304" fill="none" xmlns="http://www.w3.org/2000/svg">
<rect width="348" height="304" rx="5" fill="white"/>
<rect x="24" y="24" width="300" height="56" rx="5" fill="#F3F3F3"/>
<path d="M41.9844 58V46.5781H43.3125V58H41.9844ZM51.7812 55.6641C51.7812 56.4609 51.4844 57.0755 50.8906 57.5078C50.2969 57.9401 49.4635 58.1562 48.3906 58.1562C47.2552 58.1562 46.3698 57.9766 45.7344 57.6172V56.4141C46.1458 56.6224 46.5859 56.7865 47.0547 56.9062C47.5286 57.026 47.9844 57.0859 48.4219 57.0859C49.099 57.0859 49.6198 56.9792 49.9844 56.7656C50.349 56.5469 50.5312 56.2161 50.5312 55.7734C50.5312 55.4401 50.3854 55.1562 50.0938 54.9219C49.8073 54.6823 49.2448 54.401 48.4062 54.0781C47.6094 53.7812 47.0417 53.5234 46.7031 53.3047C46.3698 53.0807 46.1198 52.8281 45.9531 52.5469C45.7917 52.2656 45.7109 51.9297 45.7109 51.5391C45.7109 50.8411 45.9948 50.2917 46.5625 49.8906C47.1302 49.4844 47.9089 49.2812 48.8984 49.2812C49.8203 49.2812 50.7214 49.4688 51.6016 49.8438L51.1406 50.8984C50.2812 50.5443 49.5026 50.3672 48.8047 50.3672C48.1901 50.3672 47.7266 50.4635 47.4141 50.6562C47.1016 50.849 46.9453 51.1146 46.9453 51.4531C46.9453 51.6823 47.0026 51.8776 47.1172 52.0391C47.237 52.2005 47.4271 52.3542 47.6875 52.5C47.9479 52.6458 48.4479 52.8568 49.1875 53.1328C50.2031 53.5026 50.888 53.875 51.2422 54.25C51.6016 54.625 51.7812 55.0964 51.7812 55.6641ZM64.8125 58V52.4297C64.8125 51.7474 64.6667 51.237 64.375 50.8984C64.0833 50.5547 63.6302 50.3828 63.0156 50.3828C62.2083 50.3828 61.612 50.6146 61.2266 51.0781C60.8411 51.5417 60.6484 52.2552 60.6484 53.2188V58H59.3516V52.4297C59.3516 51.7474 59.2057 51.237 58.9141 50.8984C58.6224 50.5547 58.1667 50.3828 57.5469 50.3828C56.7344 50.3828 56.138 50.6276 55.7578 51.1172C55.3828 51.6016 55.1953 52.3984 55.1953 53.5078V58H53.8984V49.4375H54.9531L55.1641 50.6094H55.2266C55.4714 50.1927 55.8151 49.8672 56.2578 49.6328C56.7057 49.3984 57.2057 49.2812 57.7578 49.2812C59.0964 49.2812 59.9714 49.7656 60.3828 50.7344H60.4453C60.7005 50.2865 61.0703 49.9323 61.5547 49.6719C62.0391 49.4115 62.5911 49.2812 63.2109 49.2812C64.1797 49.2812 64.9036 49.5312 65.3828 50.0312C65.8672 50.526 66.1094 51.3203 66.1094 52.4141V58H64.8125ZM70.0859 58H68.7891V49.4375H70.0859V58ZM68.6797 47.1172C68.6797 46.8203 68.7526 46.6042 68.8984 46.4688C69.0443 46.3281 69.2266 46.2578 69.4453 46.2578C69.6536 46.2578 69.8333 46.3281 69.9844 46.4688C70.1354 46.6094 70.2109 46.8255 70.2109 47.1172C70.2109 47.4089 70.1354 47.6276 69.9844 47.7734C69.8333 47.9141 69.6536 47.9844 69.4453 47.9844C69.2266 47.9844 69.0443 47.9141 68.8984 47.7734C68.7526 47.6276 68.6797 47.4089 68.6797 47.1172ZM78.6953 58V52.4609C78.6953 51.763 78.5365 51.2422 78.2188 50.8984C77.901 50.5547 77.4036 50.3828 76.7266 50.3828C75.8307 50.3828 75.1745 50.625 74.7578 51.1094C74.3411 51.5938 74.1328 52.3932 74.1328 53.5078V58H72.8359V49.4375H73.8906L74.1016 50.6094H74.1641C74.4297 50.1875 74.8021 49.862 75.2812 49.6328C75.7604 49.3984 76.2943 49.2812 76.8828 49.2812C77.9141 49.2812 78.6901 49.5312 79.2109 50.0312C79.7318 50.526 79.9922 51.3203 79.9922 52.4141V58H78.6953ZM89.6719 49.4375V50.2578L88.0859 50.4453C88.2318 50.6276 88.362 50.8672 88.4766 51.1641C88.5911 51.4557 88.6484 51.7865 88.6484 52.1562C88.6484 52.9948 88.362 53.6641 87.7891 54.1641C87.2161 54.6641 86.4297 54.9141 85.4297 54.9141C85.1745 54.9141 84.9349 54.8932 84.7109 54.8516C84.1589 55.1432 83.8828 55.5104 83.8828 55.9531C83.8828 56.1875 83.9792 56.362 84.1719 56.4766C84.3646 56.5859 84.6953 56.6406 85.1641 56.6406H86.6797C87.6068 56.6406 88.3177 56.8359 88.8125 57.2266C89.3125 57.6172 89.5625 58.1849 89.5625 58.9297C89.5625 59.8776 89.1823 60.599 88.4219 61.0938C87.6615 61.5938 86.5521 61.8438 85.0938 61.8438C83.974 61.8438 83.1094 61.6354 82.5 61.2188C81.8958 60.8021 81.5938 60.2135 81.5938 59.4531C81.5938 58.9323 81.7604 58.4818 82.0938 58.1016C82.4271 57.7214 82.8958 57.4635 83.5 57.3281C83.2812 57.2292 83.0964 57.0755 82.9453 56.8672C82.7995 56.6589 82.7266 56.4167 82.7266 56.1406C82.7266 55.8281 82.8099 55.5547 82.9766 55.3203C83.1432 55.0859 83.4062 54.8594 83.7656 54.6406C83.3229 54.4583 82.9609 54.1484 82.6797 53.7109C82.4036 53.2734 82.2656 52.7734 82.2656 52.2109C82.2656 51.2734 82.5469 50.5521 83.1094 50.0469C83.6719 49.5365 84.4688 49.2812 85.5 49.2812C85.9479 49.2812 86.3516 49.3333 86.7109 49.4375H89.6719ZM82.8438 59.4375C82.8438 59.901 83.0391 60.2526 83.4297 60.4922C83.8203 60.7318 84.3802 60.8516 85.1094 60.8516C86.1979 60.8516 87.0026 60.6875 87.5234 60.3594C88.0495 60.0365 88.3125 59.5964 88.3125 59.0391C88.3125 58.5755 88.1693 58.2526 87.8828 58.0703C87.5964 57.8932 87.0573 57.8047 86.2656 57.8047H84.7109C84.1224 57.8047 83.6641 57.9453 83.3359 58.2266C83.0078 58.5078 82.8438 58.9115 82.8438 59.4375ZM83.5469 52.1797C83.5469 52.7786 83.7161 53.2318 84.0547 53.5391C84.3932 53.8464 84.8646 54 85.4688 54C86.7344 54 87.3672 53.3854 87.3672 52.1562C87.3672 50.8698 86.7266 50.2266 85.4453 50.2266C84.8359 50.2266 84.3672 50.3906 84.0391 50.7188C83.7109 51.0469 83.5469 51.5339 83.5469 52.1797ZM92.7266 58H91.4297V49.4375H92.7266V58ZM91.3203 47.1172C91.3203 46.8203 91.3932 46.6042 91.5391 46.4688C91.6849 46.3281 91.8672 46.2578 92.0859 46.2578C92.2943 46.2578 92.474 46.3281 92.625 46.4688C92.776 46.6094 92.8516 46.8255 92.8516 47.1172C92.8516 47.4089 92.776 47.6276 92.625 47.7734C92.474 47.9141 92.2943 47.9844 92.0859 47.9844C91.8672 47.9844 91.6849 47.9141 91.5391 47.7734C91.3932 47.6276 91.3203 47.4089 91.3203 47.1172ZM100.953 58H94.7422V57.1172L99.4141 50.4453H95.0312V49.4375H100.836V50.4453L96.2266 56.9922H100.953V58Z" fill="black"/>
<rect x="24" y="96" width="300" height="56" rx="5" fill="#F3F3F3"/>
<path d="M45.5 130H44.1719V119.758H40.5547V118.578H49.1172V119.758H45.5V130ZM54.2656 130.156C53 130.156 52 129.771 51.2656 129C50.5365 128.229 50.1719 127.159 50.1719 125.789C50.1719 124.409 50.5104 123.312 51.1875 122.5C51.8698 121.688 52.7839 121.281 53.9297 121.281C55.0026 121.281 55.8516 121.635 56.4766 122.344C57.1016 123.047 57.4141 123.977 57.4141 125.133V125.953H51.5156C51.5417 126.958 51.7943 127.721 52.2734 128.242C52.7578 128.763 53.4375 129.023 54.3125 129.023C55.2344 129.023 56.1458 128.831 57.0469 128.445V129.602C56.5885 129.799 56.1536 129.94 55.7422 130.023C55.3359 130.112 54.8438 130.156 54.2656 130.156ZM53.9141 122.367C53.2266 122.367 52.6771 122.591 52.2656 123.039C51.8594 123.487 51.6198 124.107 51.5469 124.898H56.0234C56.0234 124.081 55.8411 123.456 55.4766 123.023C55.112 122.586 54.5911 122.367 53.9141 122.367ZM60.9297 130H59.6328V117.844H60.9297V130ZM67.2969 130.156C66.0312 130.156 65.0312 129.771 64.2969 129C63.5677 128.229 63.2031 127.159 63.2031 125.789C63.2031 124.409 63.5417 123.312 64.2188 122.5C64.901 121.688 65.8151 121.281 66.9609 121.281C68.0339 121.281 68.8828 121.635 69.5078 122.344C70.1328 123.047 70.4453 123.977 70.4453 125.133V125.953H64.5469C64.5729 126.958 64.8255 127.721 65.3047 128.242C65.7891 128.763 66.4688 129.023 67.3438 129.023C68.2656 129.023 69.1771 128.831 70.0781 128.445V129.602C69.6198 129.799 69.1849 129.94 68.7734 130.023C68.3672 130.112 67.875 130.156 67.2969 130.156ZM66.9453 122.367C66.2578 122.367 65.7083 122.591 65.2969 123.039C64.8906 123.487 64.651 124.107 64.5781 124.898H69.0547C69.0547 124.081 68.8724 123.456 68.5078 123.023C68.1432 122.586 67.6224 122.367 66.9453 122.367ZM76.5234 122.445H74.3438V130H73.0469V122.445H71.5156V121.859L73.0469 121.391V120.914C73.0469 118.81 73.9661 117.758 75.8047 117.758C76.2578 117.758 76.7891 117.849 77.3984 118.031L77.0625 119.07C76.5625 118.909 76.1354 118.828 75.7812 118.828C75.2917 118.828 74.9297 118.992 74.6953 119.32C74.4609 119.643 74.3438 120.164 74.3438 120.883V121.438H76.5234V122.445ZM85.4766 125.711C85.4766 127.107 85.125 128.198 84.4219 128.984C83.7188 129.766 82.7474 130.156 81.5078 130.156C80.7422 130.156 80.0625 129.977 79.4688 129.617C78.875 129.258 78.4167 128.742 78.0938 128.07C77.7708 127.398 77.6094 126.612 77.6094 125.711C77.6094 124.315 77.9583 123.229 78.6562 122.453C79.3542 121.672 80.3229 121.281 81.5625 121.281C82.7604 121.281 83.7109 121.68 84.4141 122.477C85.1224 123.273 85.4766 124.352 85.4766 125.711ZM78.9531 125.711C78.9531 126.805 79.1719 127.638 79.6094 128.211C80.0469 128.784 80.6901 129.07 81.5391 129.07C82.388 129.07 83.0312 128.786 83.4688 128.219C83.9115 127.646 84.1328 126.81 84.1328 125.711C84.1328 124.622 83.9115 123.797 83.4688 123.234C83.0312 122.667 82.3828 122.383 81.5234 122.383C80.6745 122.383 80.0339 122.661 79.6016 123.219C79.1693 123.776 78.9531 124.607 78.9531 125.711ZM93.6172 130V124.461C93.6172 123.763 93.4583 123.242 93.1406 122.898C92.8229 122.555 92.3255 122.383 91.6484 122.383C90.7526 122.383 90.0964 122.625 89.6797 123.109C89.263 123.594 89.0547 124.393 89.0547 125.508V130H87.7578V121.438H88.8125L89.0234 122.609H89.0859C89.3516 122.188 89.724 121.862 90.2031 121.633C90.6823 121.398 91.2161 121.281 91.8047 121.281C92.8359 121.281 93.612 121.531 94.1328 122.031C94.6536 122.526 94.9141 123.32 94.9141 124.414V130H93.6172ZM105.648 121.281C106.029 121.281 106.37 121.312 106.672 121.375L106.492 122.578C106.138 122.5 105.826 122.461 105.555 122.461C104.862 122.461 104.268 122.742 103.773 123.305C103.284 123.867 103.039 124.568 103.039 125.406V130H101.742V121.438H102.812L102.961 123.023H103.023C103.341 122.466 103.724 122.036 104.172 121.734C104.62 121.432 105.112 121.281 105.648 121.281ZM113.539 130L113.281 128.781H113.219C112.792 129.318 112.365 129.682 111.938 129.875C111.516 130.062 110.987 130.156 110.352 130.156C109.503 130.156 108.836 129.938 108.352 129.5C107.872 129.062 107.633 128.44 107.633 127.633C107.633 125.904 109.016 124.997 111.781 124.914L113.234 124.867V124.336C113.234 123.664 113.089 123.169 112.797 122.852C112.51 122.529 112.049 122.367 111.414 122.367C110.701 122.367 109.893 122.586 108.992 123.023L108.594 122.031C109.016 121.802 109.477 121.622 109.977 121.492C110.482 121.362 110.987 121.297 111.492 121.297C112.513 121.297 113.268 121.523 113.758 121.977C114.253 122.43 114.5 123.156 114.5 124.156V130H113.539ZM110.609 129.086C111.417 129.086 112.049 128.865 112.508 128.422C112.971 127.979 113.203 127.359 113.203 126.562V125.789L111.906 125.844C110.875 125.88 110.13 126.042 109.672 126.328C109.219 126.609 108.992 127.049 108.992 127.648C108.992 128.117 109.133 128.474 109.414 128.719C109.701 128.964 110.099 129.086 110.609 129.086ZM120.414 129.07C121.279 129.07 121.909 128.839 122.305 128.375C122.701 127.911 122.911 127.13 122.938 126.031V125.742C122.938 124.544 122.734 123.682 122.328 123.156C121.922 122.63 121.279 122.367 120.398 122.367C119.638 122.367 119.055 122.664 118.648 123.258C118.247 123.846 118.047 124.68 118.047 125.758C118.047 126.836 118.245 127.659 118.641 128.227C119.042 128.789 119.633 129.07 120.414 129.07ZM120.219 130.156C119.115 130.156 118.253 129.768 117.633 128.992C117.013 128.216 116.703 127.133 116.703 125.742C116.703 124.341 117.016 123.247 117.641 122.461C118.266 121.674 119.135 121.281 120.25 121.281C121.422 121.281 122.323 121.724 122.953 122.609H123.023L123.211 121.438H124.234V133.844H122.938V130.18C122.938 129.659 122.966 129.216 123.023 128.852H122.922C122.323 129.721 121.422 130.156 120.219 130.156ZM132.258 130L132 128.781H131.938C131.51 129.318 131.083 129.682 130.656 129.875C130.234 130.062 129.706 130.156 129.07 130.156C128.221 130.156 127.555 129.938 127.07 129.5C126.591 129.062 126.352 128.44 126.352 127.633C126.352 125.904 127.734 124.997 130.5 124.914L131.953 124.867V124.336C131.953 123.664 131.807 123.169 131.516 122.852C131.229 122.529 130.768 122.367 130.133 122.367C129.419 122.367 128.612 122.586 127.711 123.023L127.312 122.031C127.734 121.802 128.195 121.622 128.695 121.492C129.201 121.362 129.706 121.297 130.211 121.297C131.232 121.297 131.987 121.523 132.477 121.977C132.971 122.43 133.219 123.156 133.219 124.156V130H132.258ZM129.328 129.086C130.135 129.086 130.768 128.865 131.227 128.422C131.69 127.979 131.922 127.359 131.922 126.562V125.789L130.625 125.844C129.594 125.88 128.849 126.042 128.391 126.328C127.938 126.609 127.711 127.049 127.711 127.648C127.711 128.117 127.852 128.474 128.133 128.719C128.419 128.964 128.818 129.086 129.328 129.086ZM146.812 130V124.43C146.812 123.747 146.667 123.237 146.375 122.898C146.083 122.555 145.63 122.383 145.016 122.383C144.208 122.383 143.612 122.615 143.227 123.078C142.841 123.542 142.648 124.255 142.648 125.219V130H141.352V124.43C141.352 123.747 141.206 123.237 140.914 122.898C140.622 122.555 140.167 122.383 139.547 122.383C138.734 122.383 138.138 122.628 137.758 123.117C137.383 123.602 137.195 124.398 137.195 125.508V130H135.898V121.438H136.953L137.164 122.609H137.227C137.471 122.193 137.815 121.867 138.258 121.633C138.706 121.398 139.206 121.281 139.758 121.281C141.096 121.281 141.971 121.766 142.383 122.734H142.445C142.701 122.286 143.07 121.932 143.555 121.672C144.039 121.411 144.591 121.281 145.211 121.281C146.18 121.281 146.904 121.531 147.383 122.031C147.867 122.526 148.109 123.32 148.109 124.414V130H146.812ZM152.086 130H150.789V121.438H152.086V130ZM150.68 119.117C150.68 118.82 150.753 118.604 150.898 118.469C151.044 118.328 151.227 118.258 151.445 118.258C151.654 118.258 151.833 118.328 151.984 118.469C152.135 118.609 152.211 118.826 152.211 119.117C152.211 119.409 152.135 119.628 151.984 119.773C151.833 119.914 151.654 119.984 151.445 119.984C151.227 119.984 151.044 119.914 150.898 119.773C150.753 119.628 150.68 119.409 150.68 119.117ZM160.695 130V124.461C160.695 123.763 160.536 123.242 160.219 122.898C159.901 122.555 159.404 122.383 158.727 122.383C157.831 122.383 157.174 122.625 156.758 123.109C156.341 123.594 156.133 124.393 156.133 125.508V130H154.836V121.438H155.891L156.102 122.609H156.164C156.43 122.188 156.802 121.862 157.281 121.633C157.76 121.398 158.294 121.281 158.883 121.281C159.914 121.281 160.69 121.531 161.211 122.031C161.732 122.526 161.992 123.32 161.992 124.414V130H160.695ZM171.672 121.438V122.258L170.086 122.445C170.232 122.628 170.362 122.867 170.477 123.164C170.591 123.456 170.648 123.786 170.648 124.156C170.648 124.995 170.362 125.664 169.789 126.164C169.216 126.664 168.43 126.914 167.43 126.914C167.174 126.914 166.935 126.893 166.711 126.852C166.159 127.143 165.883 127.51 165.883 127.953C165.883 128.188 165.979 128.362 166.172 128.477C166.365 128.586 166.695 128.641 167.164 128.641H168.68C169.607 128.641 170.318 128.836 170.812 129.227C171.312 129.617 171.562 130.185 171.562 130.93C171.562 131.878 171.182 132.599 170.422 133.094C169.661 133.594 168.552 133.844 167.094 133.844C165.974 133.844 165.109 133.635 164.5 133.219C163.896 132.802 163.594 132.214 163.594 131.453C163.594 130.932 163.76 130.482 164.094 130.102C164.427 129.721 164.896 129.464 165.5 129.328C165.281 129.229 165.096 129.076 164.945 128.867C164.799 128.659 164.727 128.417 164.727 128.141C164.727 127.828 164.81 127.555 164.977 127.32C165.143 127.086 165.406 126.859 165.766 126.641C165.323 126.458 164.961 126.148 164.68 125.711C164.404 125.273 164.266 124.773 164.266 124.211C164.266 123.273 164.547 122.552 165.109 122.047C165.672 121.536 166.469 121.281 167.5 121.281C167.948 121.281 168.352 121.333 168.711 121.438H171.672ZM164.844 131.438C164.844 131.901 165.039 132.253 165.43 132.492C165.82 132.732 166.38 132.852 167.109 132.852C168.198 132.852 169.003 132.688 169.523 132.359C170.049 132.036 170.312 131.596 170.312 131.039C170.312 130.576 170.169 130.253 169.883 130.07C169.596 129.893 169.057 129.805 168.266 129.805H166.711C166.122 129.805 165.664 129.945 165.336 130.227C165.008 130.508 164.844 130.911 164.844 131.438ZM165.547 124.18C165.547 124.779 165.716 125.232 166.055 125.539C166.393 125.846 166.865 126 167.469 126C168.734 126 169.367 125.385 169.367 124.156C169.367 122.87 168.727 122.227 167.445 122.227C166.836 122.227 166.367 122.391 166.039 122.719C165.711 123.047 165.547 123.534 165.547 124.18ZM174.727 130H173.43V121.438H174.727V130ZM173.32 119.117C173.32 118.82 173.393 118.604 173.539 118.469C173.685 118.328 173.867 118.258 174.086 118.258C174.294 118.258 174.474 118.328 174.625 118.469C174.776 118.609 174.852 118.826 174.852 119.117C174.852 119.409 174.776 119.628 174.625 119.773C174.474 119.914 174.294 119.984 174.086 119.984C173.867 119.984 173.685 119.914 173.539 119.773C173.393 119.628 173.32 119.409 173.32 119.117ZM182.953 130H176.742V129.117L181.414 122.445H177.031V121.438H182.836V122.445L178.227 128.992H182.953V130Z" fill="black"/>
<rect x="24" y="168" width="300" height="56" rx="5" fill="#F3F3F3"/>
<path d="M47.4531 202H45.9453L42.875 196.977L39.75 202H38.3438L42.1406 196.031L38.6016 190.578H40.0703L42.9062 195.102L45.7656 190.578H47.1797L43.6406 195.984L47.4531 202ZM50.1875 202H48.8906V193.438H50.1875V202ZM48.7812 191.117C48.7812 190.82 48.8542 190.604 49 190.469C49.1458 190.328 49.3281 190.258 49.5469 190.258C49.7552 190.258 49.9349 190.328 50.0859 190.469C50.237 190.609 50.3125 190.826 50.3125 191.117C50.3125 191.409 50.237 191.628 50.0859 191.773C49.9349 191.914 49.7552 191.984 49.5469 191.984C49.3281 191.984 49.1458 191.914 49 191.773C48.8542 191.628 48.7812 191.409 48.7812 191.117ZM58.4141 202H52.2031V201.117L56.875 194.445H52.4922V193.438H58.2969V194.445L53.6875 200.992H58.4141V202ZM71.3359 202V196.43C71.3359 195.747 71.1901 195.237 70.8984 194.898C70.6068 194.555 70.1536 194.383 69.5391 194.383C68.7318 194.383 68.1354 194.615 67.75 195.078C67.3646 195.542 67.1719 196.255 67.1719 197.219V202H65.875V196.43C65.875 195.747 65.7292 195.237 65.4375 194.898C65.1458 194.555 64.6901 194.383 64.0703 194.383C63.2578 194.383 62.6615 194.628 62.2812 195.117C61.9062 195.602 61.7188 196.398 61.7188 197.508V202H60.4219V193.438H61.4766L61.6875 194.609H61.75C61.9948 194.193 62.3385 193.867 62.7812 193.633C63.2292 193.398 63.7292 193.281 64.2812 193.281C65.6198 193.281 66.4948 193.766 66.9062 194.734H66.9688C67.224 194.286 67.5938 193.932 68.0781 193.672C68.5625 193.411 69.1146 193.281 69.7344 193.281C70.7031 193.281 71.4271 193.531 71.9062 194.031C72.3906 194.526 72.6328 195.32 72.6328 196.414V202H71.3359ZM80.5781 202L80.3203 200.781H80.2578C79.8307 201.318 79.4036 201.682 78.9766 201.875C78.5547 202.062 78.026 202.156 77.3906 202.156C76.5417 202.156 75.875 201.938 75.3906 201.5C74.9115 201.062 74.6719 200.44 74.6719 199.633C74.6719 197.904 76.0547 196.997 78.8203 196.914L80.2734 196.867V196.336C80.2734 195.664 80.1276 195.169 79.8359 194.852C79.5495 194.529 79.0885 194.367 78.4531 194.367C77.7396 194.367 76.9323 194.586 76.0312 195.023L75.6328 194.031C76.0547 193.802 76.5156 193.622 77.0156 193.492C77.5208 193.362 78.026 193.297 78.5312 193.297C79.5521 193.297 80.3073 193.523 80.7969 193.977C81.2917 194.43 81.5391 195.156 81.5391 196.156V202H80.5781ZM77.6484 201.086C78.4557 201.086 79.0885 200.865 79.5469 200.422C80.0104 199.979 80.2422 199.359 80.2422 198.562V197.789L78.9453 197.844C77.9141 197.88 77.1693 198.042 76.7109 198.328C76.2578 198.609 76.0312 199.049 76.0312 199.648C76.0312 200.117 76.1719 200.474 76.4531 200.719C76.7396 200.964 77.138 201.086 77.6484 201.086ZM86.9844 201.086C87.2135 201.086 87.4349 201.07 87.6484 201.039C87.862 201.003 88.0312 200.966 88.1562 200.93V201.922C88.0156 201.99 87.8073 202.044 87.5312 202.086C87.2604 202.133 87.0156 202.156 86.7969 202.156C85.1406 202.156 84.3125 201.284 84.3125 199.539V194.445H83.0859V193.82L84.3125 193.281L84.8594 191.453H85.6094V193.438H88.0938V194.445H85.6094V199.484C85.6094 200 85.7318 200.396 85.9766 200.672C86.2214 200.948 86.5573 201.086 86.9844 201.086ZM96.7969 201.086C97.026 201.086 97.2474 201.07 97.4609 201.039C97.6745 201.003 97.8438 200.966 97.9688 200.93V201.922C97.8281 201.99 97.6198 202.044 97.3438 202.086C97.0729 202.133 96.8281 202.156 96.6094 202.156C94.9531 202.156 94.125 201.284 94.125 199.539V194.445H92.8984V193.82L94.125 193.281L94.6719 191.453H95.4219V193.438H97.9062V194.445H95.4219V199.484C95.4219 200 95.5443 200.396 95.7891 200.672C96.0339 200.948 96.3698 201.086 96.7969 201.086ZM100.906 193.438V198.992C100.906 199.69 101.065 200.211 101.383 200.555C101.701 200.898 102.198 201.07 102.875 201.07C103.771 201.07 104.424 200.826 104.836 200.336C105.253 199.846 105.461 199.047 105.461 197.938V193.438H106.758V202H105.688L105.5 200.852H105.43C105.164 201.273 104.794 201.596 104.32 201.82C103.852 202.044 103.315 202.156 102.711 202.156C101.669 202.156 100.888 201.909 100.367 201.414C99.8516 200.919 99.5938 200.128 99.5938 199.039V193.438H100.906ZM113.422 193.281C113.802 193.281 114.143 193.312 114.445 193.375L114.266 194.578C113.911 194.5 113.599 194.461 113.328 194.461C112.635 194.461 112.042 194.742 111.547 195.305C111.057 195.867 110.812 196.568 110.812 197.406V202H109.516V193.438H110.586L110.734 195.023H110.797C111.115 194.466 111.497 194.036 111.945 193.734C112.393 193.432 112.885 193.281 113.422 193.281ZM117.344 202H116.047V193.438H117.344V202ZM115.938 191.117C115.938 190.82 116.01 190.604 116.156 190.469C116.302 190.328 116.484 190.258 116.703 190.258C116.911 190.258 117.091 190.328 117.242 190.469C117.393 190.609 117.469 190.826 117.469 191.117C117.469 191.409 117.393 191.628 117.242 191.773C117.091 191.914 116.911 191.984 116.703 191.984C116.484 191.984 116.302 191.914 116.156 191.773C116.01 191.628 115.938 191.409 115.938 191.117Z" fill="black"/>
<path d="M296 204L302.928 192H289.072L296 204Z" fill="black"/>
<rect x="90.5" y="240" width="167" height="40" rx="5" fill="#00BAFC"/>
<path d="M107.938 254.578H111.492C113.112 254.578 114.286 254.81 115.016 255.273C115.75 255.732 116.117 256.464 116.117 257.469C116.117 258.151 115.956 258.711 115.633 259.148C115.315 259.586 114.891 259.849 114.359 259.938V260.016C115.083 260.177 115.604 260.479 115.922 260.922C116.245 261.365 116.406 261.953 116.406 262.688C116.406 263.729 116.029 264.542 115.273 265.125C114.523 265.708 113.503 266 112.211 266H107.938V254.578ZM110.359 259.102H111.766C112.422 259.102 112.896 259 113.188 258.797C113.484 258.594 113.633 258.258 113.633 257.789C113.633 257.352 113.471 257.039 113.148 256.852C112.831 256.659 112.326 256.562 111.633 256.562H110.359V259.102ZM110.359 261.023V264H111.938C112.604 264 113.096 263.872 113.414 263.617C113.732 263.362 113.891 262.971 113.891 262.445C113.891 261.497 113.214 261.023 111.859 261.023H110.359ZM124.688 266L124.367 264.883H124.242C123.987 265.289 123.625 265.604 123.156 265.828C122.688 266.047 122.154 266.156 121.555 266.156C120.529 266.156 119.755 265.883 119.234 265.336C118.714 264.784 118.453 263.992 118.453 262.961V257.266H120.836V262.367C120.836 262.997 120.948 263.471 121.172 263.789C121.396 264.102 121.753 264.258 122.242 264.258C122.909 264.258 123.391 264.036 123.688 263.594C123.984 263.146 124.133 262.406 124.133 261.375V257.266H126.516V266H124.688ZM127.766 257.266H130.375L132.023 262.18C132.164 262.607 132.26 263.112 132.312 263.695H132.359C132.417 263.159 132.529 262.654 132.695 262.18L134.312 257.266H136.867L133.172 267.117C132.833 268.029 132.349 268.711 131.719 269.164C131.094 269.617 130.362 269.844 129.523 269.844C129.112 269.844 128.708 269.799 128.312 269.711V267.82C128.599 267.888 128.911 267.922 129.25 267.922C129.672 267.922 130.039 267.792 130.352 267.531C130.669 267.276 130.917 266.888 131.094 266.367L131.234 265.938L127.766 257.266ZM144.312 266L143.992 264.883H143.867C143.612 265.289 143.25 265.604 142.781 265.828C142.312 266.047 141.779 266.156 141.18 266.156C140.154 266.156 139.38 265.883 138.859 265.336C138.339 264.784 138.078 263.992 138.078 262.961V257.266H140.461V262.367C140.461 262.997 140.573 263.471 140.797 263.789C141.021 264.102 141.378 264.258 141.867 264.258C142.534 264.258 143.016 264.036 143.312 263.594C143.609 263.146 143.758 262.406 143.758 261.375V257.266H146.141V266H144.312ZM153.516 257.102C153.839 257.102 154.107 257.125 154.32 257.172L154.141 259.406C153.948 259.354 153.714 259.328 153.438 259.328C152.677 259.328 152.083 259.523 151.656 259.914C151.234 260.305 151.023 260.852 151.023 261.555V266H148.641V257.266H150.445L150.797 258.734H150.914C151.185 258.245 151.549 257.852 152.008 257.555C152.471 257.253 152.974 257.102 153.516 257.102ZM159.586 264.258C160.003 264.258 160.503 264.167 161.086 263.984V265.758C160.492 266.023 159.763 266.156 158.898 266.156C157.945 266.156 157.25 265.917 156.812 265.438C156.38 264.953 156.164 264.229 156.164 263.266V259.055H155.023V258.047L156.336 257.25L157.023 255.406H158.547V257.266H160.992V259.055H158.547V263.266C158.547 263.604 158.641 263.854 158.828 264.016C159.021 264.177 159.273 264.258 159.586 264.258ZM170.68 266H168.297V260.898C168.297 260.268 168.19 259.797 167.977 259.484C167.768 259.167 167.438 259.008 166.984 259.008C166.375 259.008 165.932 259.232 165.656 259.68C165.38 260.128 165.242 260.865 165.242 261.891V266H162.859V257.266H164.68L165 258.383H165.133C165.367 257.982 165.706 257.669 166.148 257.445C166.591 257.216 167.099 257.102 167.672 257.102C168.979 257.102 169.865 257.529 170.328 258.383H170.539C170.773 257.977 171.117 257.661 171.57 257.438C172.029 257.214 172.544 257.102 173.117 257.102C174.107 257.102 174.854 257.357 175.359 257.867C175.87 258.372 176.125 259.185 176.125 260.305V266H173.734V260.898C173.734 260.268 173.628 259.797 173.414 259.484C173.206 259.167 172.875 259.008 172.422 259.008C171.839 259.008 171.401 259.216 171.109 259.633C170.823 260.049 170.68 260.711 170.68 261.617V266ZM184.125 266L183.664 264.812H183.602C183.201 265.318 182.786 265.669 182.359 265.867C181.938 266.06 181.385 266.156 180.703 266.156C179.865 266.156 179.203 265.917 178.719 265.438C178.24 264.958 178 264.276 178 263.391C178 262.464 178.323 261.781 178.969 261.344C179.62 260.901 180.599 260.656 181.906 260.609L183.422 260.562V260.18C183.422 259.294 182.969 258.852 182.062 258.852C181.365 258.852 180.544 259.062 179.602 259.484L178.812 257.875C179.818 257.349 180.932 257.086 182.156 257.086C183.328 257.086 184.227 257.341 184.852 257.852C185.477 258.362 185.789 259.138 185.789 260.18V266H184.125ZM183.422 261.953L182.5 261.984C181.807 262.005 181.292 262.13 180.953 262.359C180.615 262.589 180.445 262.938 180.445 263.406C180.445 264.078 180.831 264.414 181.602 264.414C182.154 264.414 182.594 264.255 182.922 263.938C183.255 263.62 183.422 263.198 183.422 262.672V261.953ZM197.266 257.102C198.297 257.102 199.104 257.505 199.688 258.312C200.271 259.115 200.562 260.216 200.562 261.617C200.562 263.06 200.26 264.177 199.656 264.969C199.057 265.76 198.24 266.156 197.203 266.156C196.177 266.156 195.372 265.784 194.789 265.039H194.625L194.227 266H192.406V253.844H194.789V256.672C194.789 257.031 194.758 257.607 194.695 258.398H194.789C195.346 257.534 196.172 257.102 197.266 257.102ZM196.5 259.008C195.911 259.008 195.482 259.19 195.211 259.555C194.94 259.914 194.799 260.51 194.789 261.344V261.602C194.789 262.539 194.927 263.211 195.203 263.617C195.484 264.023 195.927 264.227 196.531 264.227C197.021 264.227 197.409 264.003 197.695 263.555C197.987 263.102 198.133 262.445 198.133 261.586C198.133 260.727 197.987 260.083 197.695 259.656C197.404 259.224 197.005 259.008 196.5 259.008ZM206.148 258.797C205.643 258.797 205.247 258.958 204.961 259.281C204.674 259.599 204.51 260.052 204.469 260.641H207.812C207.802 260.052 207.648 259.599 207.352 259.281C207.055 258.958 206.654 258.797 206.148 258.797ZM206.484 266.156C205.078 266.156 203.979 265.768 203.188 264.992C202.396 264.216 202 263.117 202 261.695C202 260.232 202.365 259.102 203.094 258.305C203.828 257.503 204.841 257.102 206.133 257.102C207.367 257.102 208.328 257.453 209.016 258.156C209.703 258.859 210.047 259.831 210.047 261.07V262.227H204.414C204.44 262.904 204.641 263.432 205.016 263.812C205.391 264.193 205.917 264.383 206.594 264.383C207.12 264.383 207.617 264.328 208.086 264.219C208.555 264.109 209.044 263.935 209.555 263.695V265.539C209.138 265.747 208.693 265.901 208.219 266C207.745 266.104 207.167 266.156 206.484 266.156ZM216.859 257.102C217.182 257.102 217.451 257.125 217.664 257.172L217.484 259.406C217.292 259.354 217.057 259.328 216.781 259.328C216.021 259.328 215.427 259.523 215 259.914C214.578 260.305 214.367 260.852 214.367 261.555V266H211.984V257.266H213.789L214.141 258.734H214.258C214.529 258.245 214.893 257.852 215.352 257.555C215.815 257.253 216.318 257.102 216.859 257.102ZM219.148 255.008C219.148 254.232 219.581 253.844 220.445 253.844C221.31 253.844 221.742 254.232 221.742 255.008C221.742 255.378 221.633 255.667 221.414 255.875C221.201 256.078 220.878 256.18 220.445 256.18C219.581 256.18 219.148 255.789 219.148 255.008ZM221.633 266H219.25V257.266H221.633V266ZM230.234 263.406C230.234 264.302 229.922 264.984 229.297 265.453C228.677 265.922 227.747 266.156 226.508 266.156C225.872 266.156 225.331 266.112 224.883 266.023C224.435 265.94 224.016 265.815 223.625 265.648V263.68C224.068 263.888 224.565 264.062 225.117 264.203C225.674 264.344 226.164 264.414 226.586 264.414C227.451 264.414 227.883 264.164 227.883 263.664C227.883 263.477 227.826 263.326 227.711 263.211C227.596 263.091 227.398 262.958 227.117 262.812C226.836 262.661 226.461 262.487 225.992 262.289C225.32 262.008 224.826 261.747 224.508 261.508C224.195 261.268 223.966 260.995 223.82 260.688C223.68 260.375 223.609 259.992 223.609 259.539C223.609 258.763 223.909 258.164 224.508 257.742C225.112 257.315 225.966 257.102 227.07 257.102C228.122 257.102 229.146 257.331 230.141 257.789L229.422 259.508C228.984 259.32 228.576 259.167 228.195 259.047C227.815 258.927 227.427 258.867 227.031 258.867C226.328 258.867 225.977 259.057 225.977 259.438C225.977 259.651 226.089 259.836 226.312 259.992C226.542 260.148 227.039 260.38 227.805 260.688C228.487 260.964 228.987 261.221 229.305 261.461C229.622 261.701 229.857 261.977 230.008 262.289C230.159 262.602 230.234 262.974 230.234 263.406ZM240.156 266H237.773V260.898C237.773 259.638 237.305 259.008 236.367 259.008C235.701 259.008 235.219 259.234 234.922 259.688C234.625 260.141 234.477 260.875 234.477 261.891V266H232.094V253.844H234.477V256.32C234.477 256.513 234.458 256.966 234.422 257.68L234.367 258.383H234.492C235.023 257.529 235.867 257.102 237.023 257.102C238.049 257.102 238.828 257.378 239.359 257.93C239.891 258.482 240.156 259.273 240.156 260.305V266Z" fill="white"/>
</svg>
