<svg width="106" height="88" viewBox="0 0 106 88" fill="none" xmlns="http://www.w3.org/2000/svg">
<g clip-path="url(#clip0_14_1990)">
<g clip-path="url(#clip1_14_1990)">
<g clip-path="url(#clip2_14_1990)">
<path d="M11 0.375C4.92339 0.375 0 5.57812 0 12C0 18.4219 4.92339 23.625 11 23.625C17.0766 23.625 22 18.4219 22 12C22 5.57812 17.0766 0.375 11 0.375ZM16.4024 8.33906L14.5972 17.3297C14.4641 17.9672 14.1048 18.1219 13.6036 17.8219L10.8536 15.6797L9.52742 17.0297C9.38105 17.1844 9.25686 17.3156 8.97298 17.3156L9.16815 14.3578L14.2645 9.49219C14.4863 9.28594 14.2157 9.16875 13.923 9.375L7.6246 13.5656L4.91008 12.6703C4.32016 12.4734 4.30685 12.0469 5.03427 11.7469L15.6395 7.425C16.1319 7.2375 16.5621 7.55156 16.4024 8.33906Z" fill="white"/>
</g>
<path d="M35.0859 18H33.7578V7.75781H30.1406V6.57812H38.7031V7.75781H35.0859V18ZM43.8516 18.1562C42.5859 18.1562 41.5859 17.7708 40.8516 17C40.1224 16.2292 39.7578 15.1589 39.7578 13.7891C39.7578 12.4089 40.0964 11.3125 40.7734 10.5C41.4557 9.6875 42.3698 9.28125 43.5156 9.28125C44.5885 9.28125 45.4375 9.63542 46.0625 10.3438C46.6875 11.0469 47 11.9766 47 13.1328V13.9531H41.1016C41.1276 14.9583 41.3802 15.7214 41.8594 16.2422C42.3438 16.763 43.0234 17.0234 43.8984 17.0234C44.8203 17.0234 45.7318 16.8307 46.6328 16.4453V17.6016C46.1745 17.7995 45.7396 17.9401 45.3281 18.0234C44.9219 18.112 44.4297 18.1562 43.8516 18.1562ZM43.5 10.3672C42.8125 10.3672 42.263 10.5911 41.8516 11.0391C41.4453 11.487 41.2057 12.1068 41.1328 12.8984H45.6094C45.6094 12.0807 45.4271 11.4557 45.0625 11.0234C44.6979 10.5859 44.1771 10.3672 43.5 10.3672ZM50.5156 18H49.2188V5.84375H50.5156V18ZM56.8828 18.1562C55.6172 18.1562 54.6172 17.7708 53.8828 17C53.1536 16.2292 52.7891 15.1589 52.7891 13.7891C52.7891 12.4089 53.1276 11.3125 53.8047 10.5C54.487 9.6875 55.401 9.28125 56.5469 9.28125C57.6198 9.28125 58.4688 9.63542 59.0938 10.3438C59.7188 11.0469 60.0312 11.9766 60.0312 13.1328V13.9531H54.1328C54.1589 14.9583 54.4115 15.7214 54.8906 16.2422C55.375 16.763 56.0547 17.0234 56.9297 17.0234C57.8516 17.0234 58.763 16.8307 59.6641 16.4453V17.6016C59.2057 17.7995 58.7708 17.9401 58.3594 18.0234C57.9531 18.112 57.4609 18.1562 56.8828 18.1562ZM56.5312 10.3672C55.8438 10.3672 55.2943 10.5911 54.8828 11.0391C54.4766 11.487 54.237 12.1068 54.1641 12.8984H58.6406C58.6406 12.0807 58.4583 11.4557 58.0938 11.0234C57.7292 10.5859 57.2083 10.3672 56.5312 10.3672ZM69.2578 9.4375V10.2578L67.6719 10.4453C67.8177 10.6276 67.9479 10.8672 68.0625 11.1641C68.1771 11.4557 68.2344 11.7865 68.2344 12.1562C68.2344 12.9948 67.9479 13.6641 67.375 14.1641C66.8021 14.6641 66.0156 14.9141 65.0156 14.9141C64.7604 14.9141 64.5208 14.8932 64.2969 14.8516C63.7448 15.1432 63.4688 15.5104 63.4688 15.9531C63.4688 16.1875 63.5651 16.362 63.7578 16.4766C63.9505 16.5859 64.2812 16.6406 64.75 16.6406H66.2656C67.1927 16.6406 67.9036 16.8359 68.3984 17.2266C68.8984 17.6172 69.1484 18.1849 69.1484 18.9297C69.1484 19.8776 68.7682 20.599 68.0078 21.0938C67.2474 21.5938 66.138 21.8438 64.6797 21.8438C63.5599 21.8438 62.6953 21.6354 62.0859 21.2188C61.4818 20.8021 61.1797 20.2135 61.1797 19.4531C61.1797 18.9323 61.3464 18.4818 61.6797 18.1016C62.013 17.7214 62.4818 17.4635 63.0859 17.3281C62.8672 17.2292 62.6823 17.0755 62.5312 16.8672C62.3854 16.6589 62.3125 16.4167 62.3125 16.1406C62.3125 15.8281 62.3958 15.5547 62.5625 15.3203C62.7292 15.0859 62.9922 14.8594 63.3516 14.6406C62.9089 14.4583 62.5469 14.1484 62.2656 13.7109C61.9896 13.2734 61.8516 12.7734 61.8516 12.2109C61.8516 11.2734 62.1328 10.5521 62.6953 10.0469C63.2578 9.53646 64.0547 9.28125 65.0859 9.28125C65.5339 9.28125 65.9375 9.33333 66.2969 9.4375H69.2578ZM62.4297 19.4375C62.4297 19.901 62.625 20.2526 63.0156 20.4922C63.4062 20.7318 63.9661 20.8516 64.6953 20.8516C65.7839 20.8516 66.5885 20.6875 67.1094 20.3594C67.6354 20.0365 67.8984 19.5964 67.8984 19.0391C67.8984 18.5755 67.7552 18.2526 67.4688 18.0703C67.1823 17.8932 66.6432 17.8047 65.8516 17.8047H64.2969C63.7083 17.8047 63.25 17.9453 62.9219 18.2266C62.5938 18.5078 62.4297 18.9115 62.4297 19.4375ZM63.1328 12.1797C63.1328 12.7786 63.3021 13.2318 63.6406 13.5391C63.9792 13.8464 64.4505 14 65.0547 14C66.3203 14 66.9531 13.3854 66.9531 12.1562C66.9531 10.8698 66.3125 10.2266 65.0312 10.2266C64.4219 10.2266 63.9531 10.3906 63.625 10.7188C63.2969 11.0469 63.1328 11.5339 63.1328 12.1797ZM74.9219 9.28125C75.3021 9.28125 75.6432 9.3125 75.9453 9.375L75.7656 10.5781C75.4115 10.5 75.099 10.4609 74.8281 10.4609C74.1354 10.4609 73.5417 10.7422 73.0469 11.3047C72.5573 11.8672 72.3125 12.5677 72.3125 13.4062V18H71.0156V9.4375H72.0859L72.2344 11.0234H72.2969C72.6146 10.4661 72.9974 10.0365 73.4453 9.73438C73.8932 9.43229 74.3854 9.28125 74.9219 9.28125ZM82.8125 18L82.5547 16.7812H82.4922C82.0651 17.3177 81.638 17.6823 81.2109 17.875C80.7891 18.0625 80.2604 18.1562 79.625 18.1562C78.776 18.1562 78.1094 17.9375 77.625 17.5C77.1458 17.0625 76.9062 16.4401 76.9062 15.6328C76.9062 13.9036 78.2891 12.9974 81.0547 12.9141L82.5078 12.8672V12.3359C82.5078 11.6641 82.362 11.1693 82.0703 10.8516C81.7839 10.5286 81.3229 10.3672 80.6875 10.3672C79.974 10.3672 79.1667 10.5859 78.2656 11.0234L77.8672 10.0312C78.2891 9.80208 78.75 9.6224 79.25 9.49219C79.7552 9.36198 80.2604 9.29688 80.7656 9.29688C81.7865 9.29688 82.5417 9.52344 83.0312 9.97656C83.526 10.4297 83.7734 11.1562 83.7734 12.1562V18H82.8125ZM79.8828 17.0859C80.6901 17.0859 81.3229 16.8646 81.7812 16.4219C82.2448 15.9792 82.4766 15.3594 82.4766 14.5625V13.7891L81.1797 13.8438C80.1484 13.8802 79.4036 14.0417 78.9453 14.3281C78.4922 14.6094 78.2656 15.0495 78.2656 15.6484C78.2656 16.1172 78.4062 16.474 78.6875 16.7188C78.974 16.9635 79.3724 17.0859 79.8828 17.0859ZM97.3672 18V12.4297C97.3672 11.7474 97.2214 11.237 96.9297 10.8984C96.638 10.5547 96.1849 10.3828 95.5703 10.3828C94.763 10.3828 94.1667 10.6146 93.7812 11.0781C93.3958 11.5417 93.2031 12.2552 93.2031 13.2188V18H91.9062V12.4297C91.9062 11.7474 91.7604 11.237 91.4688 10.8984C91.1771 10.5547 90.7214 10.3828 90.1016 10.3828C89.2891 10.3828 88.6927 10.6276 88.3125 11.1172C87.9375 11.6016 87.75 12.3984 87.75 13.5078V18H86.4531V9.4375H87.5078L87.7188 10.6094H87.7812C88.026 10.1927 88.3698 9.86719 88.8125 9.63281C89.2604 9.39844 89.7604 9.28125 90.3125 9.28125C91.651 9.28125 92.526 9.76562 92.9375 10.7344H93C93.2552 10.2865 93.625 9.93229 94.1094 9.67188C94.5938 9.41146 95.1458 9.28125 95.7656 9.28125C96.7344 9.28125 97.4583 9.53125 97.9375 10.0312C98.4219 10.526 98.6641 11.3203 98.6641 12.4141V18H97.3672Z" fill="white"/>
</g>
<g clip-path="url(#clip3_14_1990)">
<g clip-path="url(#clip4_14_1990)">
<path d="M21.6562 44C21.6562 37.5781 16.8867 32.375 11 32.375C5.11328 32.375 0.34375 37.5781 0.34375 44C0.34375 49.8022 4.24059 54.6116 9.33496 55.4844V47.3605H6.62793V44H9.33496V41.4388C9.33496 38.5255 10.9248 36.9162 13.3598 36.9162C14.526 36.9162 15.7455 37.1431 15.7455 37.1431V40.0025H14.4014C13.078 40.0025 12.665 40.8988 12.665 41.818V44H15.6204L15.1478 47.3605H12.665V55.4844C17.7594 54.6116 21.6562 49.8022 21.6562 44Z" fill="white"/>
</g>
<path d="M32.8984 50H31.5703V38.5781H37.9375V39.7578H32.8984V43.9375H37.6328V45.1172H32.8984V50ZM44.9062 50L44.6484 48.7812H44.5859C44.1589 49.3177 43.7318 49.6823 43.3047 49.875C42.8828 50.0625 42.3542 50.1562 41.7188 50.1562C40.8698 50.1562 40.2031 49.9375 39.7188 49.5C39.2396 49.0625 39 48.4401 39 47.6328C39 45.9036 40.3828 44.9974 43.1484 44.9141L44.6016 44.8672V44.3359C44.6016 43.6641 44.4557 43.1693 44.1641 42.8516C43.8776 42.5286 43.4167 42.3672 42.7812 42.3672C42.0677 42.3672 41.2604 42.5859 40.3594 43.0234L39.9609 42.0312C40.3828 41.8021 40.8438 41.6224 41.3438 41.4922C41.849 41.362 42.3542 41.2969 42.8594 41.2969C43.8802 41.2969 44.6354 41.5234 45.125 41.9766C45.6198 42.4297 45.8672 43.1562 45.8672 44.1562V50H44.9062ZM41.9766 49.0859C42.7839 49.0859 43.4167 48.8646 43.875 48.4219C44.3385 47.9792 44.5703 47.3594 44.5703 46.5625V45.7891L43.2734 45.8438C42.2422 45.8802 41.4974 46.0417 41.0391 46.3281C40.5859 46.6094 40.3594 47.0495 40.3594 47.6484C40.3594 48.1172 40.5 48.474 40.7812 48.7188C41.0677 48.9635 41.4661 49.0859 41.9766 49.0859ZM51.9688 50.1562C50.7292 50.1562 49.7682 49.776 49.0859 49.0156C48.4089 48.25 48.0703 47.1693 48.0703 45.7734C48.0703 44.3411 48.4141 43.2344 49.1016 42.4531C49.7943 41.6719 50.7786 41.2812 52.0547 41.2812C52.4661 41.2812 52.8776 41.3255 53.2891 41.4141C53.7005 41.5026 54.0234 41.6068 54.2578 41.7266L53.8594 42.8281C53.5729 42.7135 53.2604 42.6198 52.9219 42.5469C52.5833 42.4688 52.2839 42.4297 52.0234 42.4297C50.2839 42.4297 49.4141 43.5391 49.4141 45.7578C49.4141 46.8099 49.625 47.6172 50.0469 48.1797C50.474 48.7422 51.1042 49.0234 51.9375 49.0234C52.651 49.0234 53.3828 48.8698 54.1328 48.5625V49.7109C53.5599 50.0078 52.8385 50.1562 51.9688 50.1562ZM59.7891 50.1562C58.5234 50.1562 57.5234 49.7708 56.7891 49C56.0599 48.2292 55.6953 47.1589 55.6953 45.7891C55.6953 44.4089 56.0339 43.3125 56.7109 42.5C57.3932 41.6875 58.3073 41.2812 59.4531 41.2812C60.526 41.2812 61.375 41.6354 62 42.3438C62.625 43.0469 62.9375 43.9766 62.9375 45.1328V45.9531H57.0391C57.0651 46.9583 57.3177 47.7214 57.7969 48.2422C58.2812 48.763 58.9609 49.0234 59.8359 49.0234C60.7578 49.0234 61.6693 48.8307 62.5703 48.4453V49.6016C62.112 49.7995 61.6771 49.9401 61.2656 50.0234C60.8594 50.112 60.3672 50.1562 59.7891 50.1562ZM59.4375 42.3672C58.75 42.3672 58.2005 42.5911 57.7891 43.0391C57.3828 43.487 57.1432 44.1068 57.0703 44.8984H61.5469C61.5469 44.0807 61.3646 43.4557 61 43.0234C60.6354 42.5859 60.1146 42.3672 59.4375 42.3672ZM69.1406 41.2969C70.2656 41.2969 71.138 41.6823 71.7578 42.4531C72.3828 43.2188 72.6953 44.3047 72.6953 45.7109C72.6953 47.1172 72.3802 48.2109 71.75 48.9922C71.125 49.7682 70.2552 50.1562 69.1406 50.1562C68.5833 50.1562 68.0729 50.0547 67.6094 49.8516C67.151 49.6432 66.7656 49.3255 66.4531 48.8984H66.3594L66.0859 50H65.1562V37.8438H66.4531V40.7969C66.4531 41.4583 66.4323 42.0521 66.3906 42.5781H66.4531C67.0573 41.724 67.9531 41.2969 69.1406 41.2969ZM68.9531 42.3828C68.0677 42.3828 67.4297 42.638 67.0391 43.1484C66.6484 43.6536 66.4531 44.5078 66.4531 45.7109C66.4531 46.9141 66.6536 47.776 67.0547 48.2969C67.4557 48.8125 68.099 49.0703 68.9844 49.0703C69.7812 49.0703 70.375 48.7812 70.7656 48.2031C71.1562 47.6198 71.3516 46.7839 71.3516 45.6953C71.3516 44.5807 71.1562 43.75 70.7656 43.2031C70.375 42.6562 69.7708 42.3828 68.9531 42.3828ZM82.3594 45.7109C82.3594 47.1068 82.0078 48.1979 81.3047 48.9844C80.6016 49.7656 79.6302 50.1562 78.3906 50.1562C77.625 50.1562 76.9453 49.9766 76.3516 49.6172C75.7578 49.2578 75.2995 48.7422 74.9766 48.0703C74.6536 47.3984 74.4922 46.612 74.4922 45.7109C74.4922 44.3151 74.8411 43.2292 75.5391 42.4531C76.237 41.6719 77.2057 41.2812 78.4453 41.2812C79.6432 41.2812 80.5938 41.6797 81.2969 42.4766C82.0052 43.2734 82.3594 44.3516 82.3594 45.7109ZM75.8359 45.7109C75.8359 46.8047 76.0547 47.638 76.4922 48.2109C76.9297 48.7839 77.5729 49.0703 78.4219 49.0703C79.2708 49.0703 79.9141 48.7865 80.3516 48.2188C80.7943 47.6458 81.0156 46.8099 81.0156 45.7109C81.0156 44.6224 80.7943 43.7969 80.3516 43.2344C79.9141 42.6667 79.2656 42.3828 78.4062 42.3828C77.5573 42.3828 76.9167 42.6615 76.4844 43.2188C76.0521 43.776 75.8359 44.6068 75.8359 45.7109ZM92.0312 45.7109C92.0312 47.1068 91.6797 48.1979 90.9766 48.9844C90.2734 49.7656 89.3021 50.1562 88.0625 50.1562C87.2969 50.1562 86.6172 49.9766 86.0234 49.6172C85.4297 49.2578 84.9714 48.7422 84.6484 48.0703C84.3255 47.3984 84.1641 46.612 84.1641 45.7109C84.1641 44.3151 84.513 43.2292 85.2109 42.4531C85.9089 41.6719 86.8776 41.2812 88.1172 41.2812C89.3151 41.2812 90.2656 41.6797 90.9688 42.4766C91.6771 43.2734 92.0312 44.3516 92.0312 45.7109ZM85.5078 45.7109C85.5078 46.8047 85.7266 47.638 86.1641 48.2109C86.6016 48.7839 87.2448 49.0703 88.0938 49.0703C88.9427 49.0703 89.5859 48.7865 90.0234 48.2188C90.4661 47.6458 90.6875 46.8099 90.6875 45.7109C90.6875 44.6224 90.4661 43.7969 90.0234 43.2344C89.5859 42.6667 88.9375 42.3828 88.0781 42.3828C87.2292 42.3828 86.5885 42.6615 86.1562 43.2188C85.724 43.776 85.5078 44.6068 85.5078 45.7109ZM95.5938 45.6172C95.8177 45.2995 96.1589 44.8828 96.6172 44.3672L99.3828 41.4375H100.922L97.4531 45.0859L101.164 50H99.5938L96.5703 45.9531L95.5938 46.7969V50H94.3125V37.8438H95.5938V44.2891C95.5938 44.5755 95.5729 45.0182 95.5312 45.6172H95.5938Z" fill="white"/>
</g>
<g clip-path="url(#clip5_14_1990)">
<g clip-path="url(#clip6_14_1990)">
<path d="M11.0049 70.6095C7.88169 70.6095 5.36249 73.0142 5.36249 75.9955C5.36249 78.9767 7.88169 81.3814 11.0049 81.3814C14.1281 81.3814 16.6473 78.9767 16.6473 75.9955C16.6473 73.0142 14.1281 70.6095 11.0049 70.6095ZM11.0049 79.497C8.9866 79.497 7.3366 77.9267 7.3366 75.9955C7.3366 74.0642 8.98169 72.4939 11.0049 72.4939C13.0281 72.4939 14.6732 74.0642 14.6732 75.9955C14.6732 77.9267 13.0232 79.497 11.0049 79.497ZM18.1942 70.3892C18.1942 71.0876 17.6049 71.6455 16.8781 71.6455C16.1464 71.6455 15.562 71.083 15.562 70.3892C15.562 69.6955 16.1513 69.133 16.8781 69.133C17.6049 69.133 18.1942 69.6955 18.1942 70.3892ZM21.9312 71.6642C21.8477 69.9814 21.4451 68.4908 20.1536 67.2626C18.8669 66.0345 17.3053 65.6501 15.5424 65.5658C13.7254 65.4673 8.27946 65.4673 6.46249 65.5658C4.70446 65.6455 3.14285 66.0298 1.85134 67.258C0.559819 68.4861 0.162051 69.9767 0.0736587 71.6595C-0.0294662 73.3939 -0.0294662 78.5923 0.0736587 80.3267C0.157141 82.0095 0.559819 83.5001 1.85134 84.7283C3.14285 85.9564 4.69955 86.3408 6.46249 86.4251C8.27946 86.5236 13.7254 86.5236 15.5424 86.4251C17.3053 86.3455 18.8669 85.9611 20.1536 84.7283C21.4402 83.5001 21.8428 82.0095 21.9312 80.3267C22.0344 78.5923 22.0344 73.3986 21.9312 71.6642ZM19.5839 82.1876C19.2009 83.1064 18.4594 83.8142 17.4919 84.1845C16.0433 84.733 12.6058 84.6064 11.0049 84.6064C9.40401 84.6064 5.9616 84.7283 4.51785 84.1845C3.55535 83.8189 2.81384 83.1111 2.42589 82.1876C1.85134 80.8048 1.98393 77.5236 1.98393 75.9955C1.98393 74.4673 1.85625 71.1814 2.42589 69.8033C2.80892 68.8845 3.55044 68.1767 4.51785 67.8064C5.96651 67.258 9.40401 67.3845 11.0049 67.3845C12.6058 67.3845 16.0482 67.2626 17.4919 67.8064C18.4544 68.172 19.196 68.8798 19.5839 69.8033C20.1585 71.1861 20.0259 74.4673 20.0259 75.9955C20.0259 77.5236 20.1585 80.8095 19.5839 82.1876Z" fill="white"/>
</g>
<path d="M31.5703 82V70.5781H32.8984V82H31.5703ZM41.7031 82V76.4609C41.7031 75.763 41.5443 75.2422 41.2266 74.8984C40.9089 74.5547 40.4115 74.3828 39.7344 74.3828C38.8385 74.3828 38.1823 74.625 37.7656 75.1094C37.349 75.5938 37.1406 76.3932 37.1406 77.5078V82H35.8438V73.4375H36.8984L37.1094 74.6094H37.1719C37.4375 74.1875 37.8099 73.862 38.2891 73.6328C38.7682 73.3984 39.3021 73.2812 39.8906 73.2812C40.9219 73.2812 41.6979 73.5312 42.2188 74.0312C42.7396 74.526 43 75.3203 43 76.4141V82H41.7031ZM51.1953 79.6641C51.1953 80.4609 50.8984 81.0755 50.3047 81.5078C49.7109 81.9401 48.8776 82.1562 47.8047 82.1562C46.6693 82.1562 45.7839 81.9766 45.1484 81.6172V80.4141C45.5599 80.6224 46 80.7865 46.4688 80.9062C46.9427 81.026 47.3984 81.0859 47.8359 81.0859C48.513 81.0859 49.0339 80.9792 49.3984 80.7656C49.763 80.5469 49.9453 80.2161 49.9453 79.7734C49.9453 79.4401 49.7995 79.1562 49.5078 78.9219C49.2214 78.6823 48.6589 78.401 47.8203 78.0781C47.0234 77.7812 46.4557 77.5234 46.1172 77.3047C45.7839 77.0807 45.5339 76.8281 45.3672 76.5469C45.2057 76.2656 45.125 75.9297 45.125 75.5391C45.125 74.8411 45.4089 74.2917 45.9766 73.8906C46.5443 73.4844 47.3229 73.2812 48.3125 73.2812C49.2344 73.2812 50.1354 73.4688 51.0156 73.8438L50.5547 74.8984C49.6953 74.5443 48.9167 74.3672 48.2188 74.3672C47.6042 74.3672 47.1406 74.4635 46.8281 74.6562C46.5156 74.849 46.3594 75.1146 46.3594 75.4531C46.3594 75.6823 46.4167 75.8776 46.5312 76.0391C46.651 76.2005 46.8411 76.3542 47.1016 76.5C47.362 76.6458 47.862 76.8568 48.6016 77.1328C49.6172 77.5026 50.3021 77.875 50.6562 78.25C51.0156 78.625 51.1953 79.0964 51.1953 79.6641ZM56.0781 81.0859C56.3073 81.0859 56.5286 81.0703 56.7422 81.0391C56.9557 81.0026 57.125 80.9661 57.25 80.9297V81.9219C57.1094 81.9896 56.901 82.0443 56.625 82.0859C56.3542 82.1328 56.1094 82.1562 55.8906 82.1562C54.2344 82.1562 53.4062 81.2839 53.4062 79.5391V74.4453H52.1797V73.8203L53.4062 73.2812L53.9531 71.4531H54.7031V73.4375H57.1875V74.4453H54.7031V79.4844C54.7031 80 54.8255 80.3958 55.0703 80.6719C55.3151 80.9479 55.651 81.0859 56.0781 81.0859ZM64.2344 82L63.9766 80.7812H63.9141C63.487 81.3177 63.0599 81.6823 62.6328 81.875C62.2109 82.0625 61.6823 82.1562 61.0469 82.1562C60.1979 82.1562 59.5312 81.9375 59.0469 81.5C58.5677 81.0625 58.3281 80.4401 58.3281 79.6328C58.3281 77.9036 59.7109 76.9974 62.4766 76.9141L63.9297 76.8672V76.3359C63.9297 75.6641 63.7839 75.1693 63.4922 74.8516C63.2057 74.5286 62.7448 74.3672 62.1094 74.3672C61.3958 74.3672 60.5885 74.5859 59.6875 75.0234L59.2891 74.0312C59.7109 73.8021 60.1719 73.6224 60.6719 73.4922C61.1771 73.362 61.6823 73.2969 62.1875 73.2969C63.2083 73.2969 63.9635 73.5234 64.4531 73.9766C64.9479 74.4297 65.1953 75.1562 65.1953 76.1562V82H64.2344ZM61.3047 81.0859C62.112 81.0859 62.7448 80.8646 63.2031 80.4219C63.6667 79.9792 63.8984 79.3594 63.8984 78.5625V77.7891L62.6016 77.8438C61.5703 77.8802 60.8255 78.0417 60.3672 78.3281C59.9141 78.6094 59.6875 79.0495 59.6875 79.6484C59.6875 80.1172 59.8281 80.474 60.1094 80.7188C60.3958 80.9635 60.7943 81.0859 61.3047 81.0859ZM74.8828 73.4375V74.2578L73.2969 74.4453C73.4427 74.6276 73.5729 74.8672 73.6875 75.1641C73.8021 75.4557 73.8594 75.7865 73.8594 76.1562C73.8594 76.9948 73.5729 77.6641 73 78.1641C72.4271 78.6641 71.6406 78.9141 70.6406 78.9141C70.3854 78.9141 70.1458 78.8932 69.9219 78.8516C69.3698 79.1432 69.0938 79.5104 69.0938 79.9531C69.0938 80.1875 69.1901 80.362 69.3828 80.4766C69.5755 80.5859 69.9062 80.6406 70.375 80.6406H71.8906C72.8177 80.6406 73.5286 80.8359 74.0234 81.2266C74.5234 81.6172 74.7734 82.1849 74.7734 82.9297C74.7734 83.8776 74.3932 84.599 73.6328 85.0938C72.8724 85.5938 71.763 85.8438 70.3047 85.8438C69.1849 85.8438 68.3203 85.6354 67.7109 85.2188C67.1068 84.8021 66.8047 84.2135 66.8047 83.4531C66.8047 82.9323 66.9714 82.4818 67.3047 82.1016C67.638 81.7214 68.1068 81.4635 68.7109 81.3281C68.4922 81.2292 68.3073 81.0755 68.1562 80.8672C68.0104 80.6589 67.9375 80.4167 67.9375 80.1406C67.9375 79.8281 68.0208 79.5547 68.1875 79.3203C68.3542 79.0859 68.6172 78.8594 68.9766 78.6406C68.5339 78.4583 68.1719 78.1484 67.8906 77.7109C67.6146 77.2734 67.4766 76.7734 67.4766 76.2109C67.4766 75.2734 67.7578 74.5521 68.3203 74.0469C68.8828 73.5365 69.6797 73.2812 70.7109 73.2812C71.1589 73.2812 71.5625 73.3333 71.9219 73.4375H74.8828ZM68.0547 83.4375C68.0547 83.901 68.25 84.2526 68.6406 84.4922C69.0312 84.7318 69.5911 84.8516 70.3203 84.8516C71.4089 84.8516 72.2135 84.6875 72.7344 84.3594C73.2604 84.0365 73.5234 83.5964 73.5234 83.0391C73.5234 82.5755 73.3802 82.2526 73.0938 82.0703C72.8073 81.8932 72.2682 81.8047 71.4766 81.8047H69.9219C69.3333 81.8047 68.875 81.9453 68.5469 82.2266C68.2188 82.5078 68.0547 82.9115 68.0547 83.4375ZM68.7578 76.1797C68.7578 76.7786 68.9271 77.2318 69.2656 77.5391C69.6042 77.8464 70.0755 78 70.6797 78C71.9453 78 72.5781 77.3854 72.5781 76.1562C72.5781 74.8698 71.9375 74.2266 70.6562 74.2266C70.0469 74.2266 69.5781 74.3906 69.25 74.7188C68.9219 75.0469 68.7578 75.5339 68.7578 76.1797ZM80.5469 73.2812C80.9271 73.2812 81.2682 73.3125 81.5703 73.375L81.3906 74.5781C81.0365 74.5 80.724 74.4609 80.4531 74.4609C79.7604 74.4609 79.1667 74.7422 78.6719 75.3047C78.1823 75.8672 77.9375 76.5677 77.9375 77.4062V82H76.6406V73.4375H77.7109L77.8594 75.0234H77.9219C78.2396 74.4661 78.6224 74.0365 79.0703 73.7344C79.5182 73.4323 80.0104 73.2812 80.5469 73.2812ZM88.4375 82L88.1797 80.7812H88.1172C87.6901 81.3177 87.263 81.6823 86.8359 81.875C86.4141 82.0625 85.8854 82.1562 85.25 82.1562C84.401 82.1562 83.7344 81.9375 83.25 81.5C82.7708 81.0625 82.5312 80.4401 82.5312 79.6328C82.5312 77.9036 83.9141 76.9974 86.6797 76.9141L88.1328 76.8672V76.3359C88.1328 75.6641 87.987 75.1693 87.6953 74.8516C87.4089 74.5286 86.9479 74.3672 86.3125 74.3672C85.599 74.3672 84.7917 74.5859 83.8906 75.0234L83.4922 74.0312C83.9141 73.8021 84.375 73.6224 84.875 73.4922C85.3802 73.362 85.8854 73.2969 86.3906 73.2969C87.4115 73.2969 88.1667 73.5234 88.6562 73.9766C89.151 74.4297 89.3984 75.1562 89.3984 76.1562V82H88.4375ZM85.5078 81.0859C86.3151 81.0859 86.9479 80.8646 87.4062 80.4219C87.8698 79.9792 88.1016 79.3594 88.1016 78.5625V77.7891L86.8047 77.8438C85.7734 77.8802 85.0286 78.0417 84.5703 78.3281C84.1172 78.6094 83.8906 79.0495 83.8906 79.6484C83.8906 80.1172 84.0312 80.474 84.3125 80.7188C84.599 80.9635 84.9974 81.0859 85.5078 81.0859ZM102.992 82V76.4297C102.992 75.7474 102.846 75.237 102.555 74.8984C102.263 74.5547 101.81 74.3828 101.195 74.3828C100.388 74.3828 99.7917 74.6146 99.4062 75.0781C99.0208 75.5417 98.8281 76.2552 98.8281 77.2188V82H97.5312V76.4297C97.5312 75.7474 97.3854 75.237 97.0938 74.8984C96.8021 74.5547 96.3464 74.3828 95.7266 74.3828C94.9141 74.3828 94.3177 74.6276 93.9375 75.1172C93.5625 75.6016 93.375 76.3984 93.375 77.5078V82H92.0781V73.4375H93.1328L93.3438 74.6094H93.4062C93.651 74.1927 93.9948 73.8672 94.4375 73.6328C94.8854 73.3984 95.3854 73.2812 95.9375 73.2812C97.276 73.2812 98.151 73.7656 98.5625 74.7344H98.625C98.8802 74.2865 99.25 73.9323 99.7344 73.6719C100.219 73.4115 100.771 73.2812 101.391 73.2812C102.359 73.2812 103.083 73.5312 103.562 74.0312C104.047 74.526 104.289 75.3203 104.289 76.4141V82H102.992Z" fill="white"/>
</g>
</g>
<defs>
<clipPath id="clip0_14_1990">
<rect width="106" height="88" fill="white"/>
</clipPath>
<clipPath id="clip1_14_1990">
<rect width="100" height="24" fill="white"/>
</clipPath>
<clipPath id="clip2_14_1990">
<rect width="22" height="24" fill="white"/>
</clipPath>
<clipPath id="clip3_14_1990">
<rect width="102" height="24" fill="white" transform="translate(0 32)"/>
</clipPath>
<clipPath id="clip4_14_1990">
<rect width="22" height="24" fill="white" transform="translate(0 32)"/>
</clipPath>
<clipPath id="clip5_14_1990">
<rect width="106" height="24" fill="white" transform="translate(0 64)"/>
</clipPath>
<clipPath id="clip6_14_1990">
<rect width="22" height="24" fill="white" transform="translate(0 64)"/>
</clipPath>
</defs>
</svg>
